# Bezier bicubic surface sample — 3 patches
o BezierSurface
# color 80 200 255 255
v -9.0 -6.0 0.6992
v -9.0 -2.0 0.8535
v -9.0 2.0 0.8535
v -9.0 6.0 0.6992
v -7.0 -6.0 0.9325
v -7.0 -2.0 1.3809
v -7.0 2.0 1.3809
v -7.0 6.0 0.9325
v -5.0 -6.0 0.4107
v -5.0 -2.0 1.4085
v -5.0 2.0 1.4085
v -5.0 6.0 0.4107
v -3.0 -6.0 0.1134
v -3.0 -2.0 1.8143
v -3.0 2.0 1.8143
v -3.0 6.0 0.1134
v -1.0 -6.0 0.7136
v -1.0 -2.0 2.9342
v -1.0 2.0 2.9342
v -1.0 6.0 0.7136
v 1.0 -6.0 1.617
v 1.0 -2.0 3.8376
v 1.0 2.0 3.8376
v 1.0 6.0 1.617
v 3.0 -6.0 1.6716
v 3.0 -2.0 3.3725
v 3.0 2.0 3.3725
v 3.0 6.0 1.6716
v 5.0 -6.0 0.6365
v 5.0 -2.0 1.6343
v 5.0 2.0 1.6343
v 5.0 6.0 0.6365
v 7.0 -6.0 -0.462
v 7.0 -2.0 -0.0137
v 7.0 2.0 -0.0137
v 7.0 6.0 -0.462
v 9.0 -6.0 -0.5372
v 9.0 -2.0 -0.3829
v 9.0 2.0 -0.3829
v 9.0 6.0 -0.5372
cstype bezier
deg 3 3
surf 0.0 1.0 0.0 1.0 1 2 3 4 5 6 7 8 9 10 11 12 13 14 15 16
parm u 0.0 1.0
parm v 0.0 1.0
end
cstype bezier
deg 3 3
surf 0.0 1.0 0.0 1.0 13 14 15 16 17 18 19 20 21 22 23 24 25 26 27 28
parm u 0.0 1.0
parm v 0.0 1.0
end
cstype bezier
deg 3 3
surf 0.0 1.0 0.0 1.0 25 26 27 28 29 30 31 32 33 34 35 36 37 38 39 40
parm u 0.0 1.0
parm v 0.0 1.0
end
