# Bspline bicubic surface sample — 3 patches
o BSplineSurface
# color 80 200 255 255
# filled 1
v -7.5 -4.5 1.0944
v -7.5 -1.5 1.3511
v -7.5 1.5 1.3511
v -7.5 4.5 1.0944
v -4.5 -4.5 0.6951
v -4.5 -1.5 1.5476
v -4.5 1.5 1.5476
v -4.5 4.5 0.6951
v -1.5 -4.5 1.2628
v -1.5 -1.5 2.8162
v -1.5 1.5 2.8162
v -1.5 4.5 1.2628
v 1.5 -4.5 2.5161
v 1.5 -1.5 4.0695
v 1.5 1.5 4.0695
v 1.5 4.5 2.5161
v 4.5 -4.5 1.3789
v 4.5 -1.5 2.2314
v 4.5 1.5 2.2314
v 4.5 4.5 1.3789
v 7.5 -4.5 -0.4697
v 7.5 -1.5 -0.2129
v 7.5 1.5 -0.2129
v 7.5 4.5 -0.4697
cstype bspline
deg 3 3
surf 0.0 1.0 0.0 1.0 1 2 3 4 5 6 7 8 9 10 11 12 13 14 15 16
parm u 0.0 1.0
parm v 0.0 1.0
end
cstype bspline
deg 3 3
surf 0.0 1.0 0.0 1.0 5 6 7 8 9 10 11 12 13 14 15 16 17 18 19 20
parm u 0.0 1.0
parm v 0.0 1.0
end
cstype bspline
deg 3 3
surf 0.0 1.0 0.0 1.0 9 10 11 12 13 14 15 16 17 18 19 20 21 22 23 24
parm u 0.0 1.0
parm v 0.0 1.0
end
