# B-Spline bicubic surface sample — 5x5 control grid, 4 patches
# Tessellated via forward differences. Import to test the surface pipeline.
o BSplineDome
# color 120 220 160 255
v -8.0000 -8.0000 0.3711
v -8.0000 -4.0000 0.0770
v -8.0000 0.0000 0.8212
v -8.0000 4.0000 0.0770
v -8.0000 8.0000 0.3711
v -4.0000 -8.0000 0.0770
v -4.0000 -4.0000 2.5081
v -4.0000 0.0000 2.6243
v -4.0000 4.0000 2.5081
v -4.0000 8.0000 0.0770
v 0.0000 -8.0000 0.8212
v 0.0000 -4.0000 2.6243
v 0.0000 0.0000 5.1000
v 0.0000 4.0000 2.6243
v 0.0000 8.0000 0.8212
v 4.0000 -8.0000 0.0770
v 4.0000 -4.0000 2.5081
v 4.0000 0.0000 2.6243
v 4.0000 4.0000 2.5081
v 4.0000 8.0000 0.0770
v 8.0000 -8.0000 0.3711
v 8.0000 -4.0000 0.0770
v 8.0000 0.0000 0.8212
v 8.0000 4.0000 0.0770
v 8.0000 8.0000 0.3711
cstype bspline
deg 3 3
surf 0.0 1.0 0.0 1.0 1 2 3 4 6 7 8 9 11 12 13 14 16 17 18 19
parm u 0.0 1.0
parm v 0.0 1.0
end
cstype bspline
deg 3 3
surf 0.0 1.0 0.0 1.0 2 3 4 5 7 8 9 10 12 13 14 15 17 18 19 20
parm u 0.0 1.0
parm v 0.0 1.0
end
cstype bspline
deg 3 3
surf 0.0 1.0 0.0 1.0 6 7 8 9 11 12 13 14 16 17 18 19 21 22 23 24
parm u 0.0 1.0
parm v 0.0 1.0
end
cstype bspline
deg 3 3
surf 0.0 1.0 0.0 1.0 7 8 9 10 12 13 14 15 17 18 19 20 22 23 24 25
parm u 0.0 1.0
parm v 0.0 1.0
end
